<svg width="25" height="22" viewBox="0 0 25 22" fill="none" xmlns="http://www.w3.org/2000/svg">
<path d="M22.0703 0H2.92969C1.31416 0 0 1.33454 0 2.97512V15.669C0 17.3095 1.31416 18.6441 2.92969 18.6441H10.5625L8.51059 16.6607H2.92969C2.39124 16.6607 1.95312 16.2158 1.95312 15.669V3.58312L12.5 11.5497L23.0469 3.58312V9.05784L25 6.84394V2.97512C25 1.33454 23.6858 0 22.0703 0ZM3.10783 1.98341H21.8922L12.5 9.07779L3.10783 1.98341ZM23.5411 11.4858L24.9941 12.811L16.8671 22L11.5826 16.8917L12.9292 15.4551L16.7574 19.1558L23.5411 11.4858Z" fill="white"/>
</svg>
