<svg width="28" height="23" viewBox="0 0 28 23" fill="none" xmlns="http://www.w3.org/2000/svg">
<path d="M4.82163 22.2707C5.96748 22.6895 7.17721 22.9011 8.39553 22.8959C9.72589 22.8913 11.0461 22.6613 12.3014 22.2154C14.8246 21.3275 16.9197 19.6753 18.2006 17.563C19.4989 15.4224 19.8092 13.0662 19.0742 10.9286C19.06 10.8879 19.0436 10.848 19.025 10.8091C19.2094 10.9412 19.4206 11.0302 19.6431 11.0697C19.8657 11.1092 20.0941 11.0981 20.3119 11.0374L27.256 7.62855C27.4129 7.55227 27.5532 7.44517 27.6688 7.31349C27.7844 7.18181 27.873 7.02818 27.9293 6.86154C27.9857 6.6949 28.0087 6.51858 27.9971 6.34286C27.9854 6.16713 27.9393 5.99551 27.8615 5.83798L27.759 5.63068C27.6078 5.32354 27.3448 5.08767 27.0253 4.97267C26.7057 4.85767 26.3546 4.8725 26.0456 5.01404L19.5063 8.03474C19.1805 8.1262 18.8933 8.32339 18.6891 8.596C18.4848 8.86861 18.3746 9.20155 18.3756 9.54365C18.3755 9.71927 18.4051 9.89362 18.4631 10.0592L18.3344 10.146C16.6178 9.27737 12.4545 9.97761 8.56461 11.3465C8.33606 11.4269 8.10821 11.5098 7.88105 11.5951C7.45117 9.98391 8.56363 8.81121 8.62416 8.74908L8.00436 8.12436C7.58044 8.58816 7.26334 9.1412 7.07586 9.74375C6.8545 10.4495 6.84838 11.2064 7.05831 11.9158C6.35834 12.1985 5.68571 12.4975 5.04923 12.8081C4.69623 11.4824 4.6649 10.1146 4.71297 9.12617C4.7224 8.92667 4.69233 8.72728 4.62452 8.5397C4.55671 8.35212 4.45253 8.18014 4.31811 8.03387C4.18368 7.8876 4.02171 7.76998 3.84173 7.68792C3.66174 7.60586 3.46735 7.56101 3.26999 7.55602C3.07263 7.55103 2.87628 7.58599 2.69246 7.65885C2.50864 7.73171 2.34107 7.84099 2.19959 7.98029C2.0581 8.11958 1.94556 8.28608 1.86857 8.46999C1.79159 8.65391 1.7517 8.85153 1.75127 9.05126V12.1815C1.75114 12.2449 1.72617 12.3056 1.68183 12.3505C1.6375 12.3953 1.57742 12.4204 1.51475 12.4205C1.36825 12.4204 1.22317 12.4497 1.08788 12.5066C0.952596 12.5635 0.829764 12.6469 0.726456 12.752C0.623149 12.8571 0.541406 12.9818 0.485933 13.119C0.430459 13.2562 0.402349 13.4031 0.403222 13.5513C0.422617 14.2694 0.549109 14.9805 0.778417 15.6604C0.109015 16.3854 -0.130397 17.0426 0.0669623 17.6168C0.801987 19.7544 2.49056 21.4072 4.82163 22.2707ZM12.0139 21.3791C9.68096 22.2 7.23357 22.2216 5.12245 21.4395C3.56261 20.8617 2.32803 19.8957 1.5351 18.6548C1.99254 18.7454 2.45803 18.7878 2.9241 18.7813C3.1921 18.7813 3.47828 18.7707 3.78266 18.7496C5.29104 18.645 7.10638 18.2809 9.0115 17.7087C9.04978 17.7149 10.093 17.3691 10.5769 17.1988C11.6808 16.8123 12.7642 16.3682 13.8227 15.8684L13.845 15.8578C14.9895 15.313 16.0137 14.7334 16.8559 14.1493C17.6094 13.6266 18.1769 13.1321 18.5586 12.6655C18.8877 16.2 16.2189 19.8994 12.0139 21.3791ZM16.5685 12.4719C16.4763 13.2652 16.3228 13.4287 16.3163 13.4353L16.3248 13.4438C15.9626 13.6933 15.5654 13.9422 15.1381 14.1878C15.4236 13.6161 15.6122 13 15.696 12.3652C15.7104 12.258 15.7627 12.1597 15.8433 12.0885C15.9238 12.0173 16.027 11.978 16.134 11.9779C16.1957 11.9779 16.2568 11.9911 16.3132 12.0167C16.3695 12.0422 16.4199 12.0796 16.4609 12.1263C16.502 12.1729 16.5328 12.2279 16.5514 12.2875C16.5699 12.3471 16.5758 12.41 16.5686 12.472L16.5685 12.4719ZM26.4062 5.82033C26.5091 5.7734 26.626 5.76863 26.7323 5.80703C26.8386 5.84542 26.9261 5.924 26.9764 6.02625L27.0789 6.23355C27.1049 6.28624 27.1203 6.34365 27.1241 6.40243C27.1279 6.46121 27.1201 6.52017 27.1011 6.57586C27.0821 6.63154 27.0523 6.68283 27.0135 6.72672C26.9747 6.77061 26.9275 6.80621 26.8749 6.83144L21.4372 9.51128C21.4328 9.29244 21.3824 9.07704 21.2895 8.87935C21.1967 8.68166 21.0633 8.50618 20.8984 8.36452L26.4062 5.82033ZM19.9068 8.87976C20.0437 8.87959 20.1772 8.92279 20.2886 9.0033C20.4 9.08381 20.4836 9.19758 20.5279 9.32865C20.5721 9.45972 20.5746 9.60151 20.5352 9.73412C20.4957 9.86673 20.4161 9.98351 20.3077 10.0681L20.0671 10.1867C19.9893 10.2075 19.9082 10.2128 19.8284 10.2023L19.9309 10.1332C19.9793 10.1013 20.021 10.0599 20.0535 10.0116C20.086 9.9632 20.1088 9.9088 20.1204 9.85151C20.132 9.79421 20.1323 9.73515 20.1212 9.67774C20.1101 9.62034 20.0879 9.56572 20.0558 9.51706C20.0238 9.46839 19.9825 9.42664 19.9343 9.39421C19.8862 9.36179 19.8322 9.33933 19.7755 9.32815C19.7187 9.31696 19.6604 9.31727 19.6037 9.32904C19.5471 9.34082 19.4933 9.36384 19.4456 9.39676L19.2515 9.5276C19.2558 9.35453 19.3266 9.18996 19.449 9.06896C19.5714 8.94795 19.7356 8.88006 19.9068 8.87976ZM7.9774 13.5891L8.64959 13.0224C8.49073 12.8309 8.34804 12.6263 8.22305 12.4107C8.43178 12.3327 8.64194 12.2565 8.85193 12.1825C11.2444 11.3406 13.5767 10.8065 15.4186 10.6787C16.2757 10.6193 16.9982 10.6539 17.5076 10.779C17.9222 10.8807 18.185 11.0371 18.2476 11.2192C18.3102 11.4014 18.2 11.6889 17.9374 12.029C17.7854 12.2209 17.6185 12.4002 17.4382 12.5652C17.4751 12.2176 17.3752 11.8692 17.1601 11.5956C16.945 11.3219 16.6321 11.1449 16.289 11.103C15.9458 11.0611 15.6002 11.1575 15.3269 11.3715C15.0536 11.5855 14.8746 11.8998 14.8286 12.2463C14.6064 13.9011 13.6395 14.8655 13.3698 15.1056C12.3643 15.5766 11.3361 15.9962 10.2891 16.3628C9.84275 16.5198 9.39951 16.6659 8.95933 16.8011C7.23089 16.4636 6.00879 15.4069 5.32446 13.656C5.97696 13.334 6.6719 13.0244 7.3961 12.7321C7.5617 13.0363 7.7564 13.3233 7.9774 13.5891ZM1.3466 13.3764C1.36857 13.3539 1.39476 13.336 1.42364 13.3239C1.45251 13.3118 1.48349 13.3056 1.51475 13.3057C1.80943 13.3053 2.09195 13.1868 2.30032 12.976C2.50869 12.7652 2.6259 12.4793 2.62623 12.1812V9.05126C2.62633 8.88842 2.69032 8.73229 2.80413 8.61714C2.91795 8.502 3.07228 8.43727 3.23324 8.43716C3.31553 8.43721 3.39695 8.45417 3.47255 8.48704C3.54816 8.5199 3.61637 8.56798 3.67304 8.62834C3.72972 8.6887 3.77366 8.76009 3.80222 8.83816C3.83077 8.91624 3.84334 8.99938 3.83915 9.08252C3.77659 10.3684 3.84161 12.2602 4.50669 13.97C4.88976 14.9547 5.43159 15.7651 6.11701 16.3784C6.50735 16.7267 6.94667 17.0143 7.4206 17.2319C6.42004 17.4938 5.40281 17.6856 4.37616 17.8058L4.0107 17.7376C3.03358 17.5729 2.2915 16.9483 1.80502 15.8814C1.48025 15.1452 1.3013 14.3517 1.2783 13.5458C1.27799 13.5144 1.28387 13.4832 1.2956 13.4541C1.30733 13.4251 1.32466 13.3986 1.3466 13.3764ZM0.89342 17.326C0.832884 17.15 0.933067 16.8816 1.16641 16.5666C1.42467 17.063 1.77759 17.5026 2.20477 17.8602C2.01243 17.842 1.82153 17.8106 1.63342 17.7661C1.21907 17.6645 0.956363 17.5083 0.893585 17.3263V17.326L0.89342 17.326Z" fill="white"/>
<path d="M3.93891 3.11572C3.67933 3.11572 3.42559 3.19405 3.20976 3.34079C2.99392 3.48753 2.82571 3.69609 2.72637 3.94011C2.62703 4.18413 2.60104 4.45265 2.65168 4.7117C2.70232 4.97075 2.82732 5.2087 3.01087 5.39546C3.19442 5.58223 3.42828 5.70942 3.68287 5.76095C3.93746 5.81247 4.20134 5.78603 4.44116 5.68495C4.68098 5.58388 4.88596 5.41271 5.03017 5.1931C5.17438 4.97348 5.25136 4.71529 5.25136 4.45116C5.25097 4.09711 5.11257 3.75766 4.86652 3.5073C4.62047 3.25695 4.28687 3.11612 3.93891 3.11572ZM3.93891 4.89631C3.85239 4.89631 3.7678 4.8702 3.69586 4.82129C3.62392 4.77238 3.56784 4.70285 3.53473 4.62151C3.50162 4.54017 3.49296 4.45067 3.50984 4.36432C3.52672 4.27797 3.56838 4.19865 3.62957 4.1364C3.69075 4.07414 3.7687 4.03175 3.85356 4.01457C3.93843 3.99739 4.02639 4.00621 4.10633 4.0399C4.18627 4.07359 4.25459 4.13065 4.30266 4.20385C4.35074 4.27706 4.37639 4.36312 4.37639 4.45116C4.37626 4.56918 4.33013 4.68233 4.24811 4.76578C4.1661 4.84924 4.0549 4.89618 3.93891 4.89631Z" fill="white"/>
<path d="M8.31361 1.33544C8.31361 1.07132 8.23664 0.813123 8.09243 0.593511C7.94821 0.373898 7.74324 0.202732 7.50342 0.101655C7.2636 0.000578629 6.99971 -0.0258676 6.74512 0.0256608C6.49053 0.0771891 6.25668 0.204378 6.07313 0.391143C5.88958 0.577908 5.76458 0.815861 5.71394 1.07491C5.6633 1.33396 5.68929 1.60247 5.78863 1.84649C5.88796 2.09051 6.05618 2.29908 6.27201 2.44582C6.48784 2.59256 6.74159 2.67089 7.00117 2.67089C7.34913 2.67049 7.68273 2.52966 7.92877 2.2793C8.17482 2.02895 8.31322 1.6895 8.31361 1.33544ZM6.56368 1.33544C6.56368 1.2474 6.58934 1.16134 6.63741 1.08813C6.68549 1.01493 6.75381 0.957872 6.83375 0.92418C6.91369 0.890488 7.00165 0.881673 7.08652 0.898849C7.17138 0.916025 7.24933 0.958421 7.31051 1.02068C7.3717 1.08293 7.41336 1.16225 7.43024 1.2486C7.44712 1.33495 7.43846 1.42445 7.40535 1.50579C7.37224 1.58713 7.31616 1.65666 7.24422 1.70557C7.17228 1.75448 7.08769 1.78059 7.00117 1.78059C6.88518 1.78046 6.77398 1.73352 6.69196 1.65006C6.60995 1.56661 6.56382 1.45346 6.56368 1.33544Z" fill="white"/>
<path d="M5.68872 6.23193H6.56368V7.12223H5.68872V6.23193Z" fill="white"/>
<path d="M5.25146 10.2388H6.12643V11.1291H5.25146V10.2388Z" fill="white"/>
<path d="M7.87622 14.2446H8.75118V15.1349H7.87622V14.2446Z" fill="white"/>
<path d="M0.876465 5.78662H1.75143V6.67692H0.876465V5.78662Z" fill="white"/>
<path d="M4.57126 17.7312L5.05659 16.9905C3.98738 16.2652 3.94019 15.5969 3.93893 15.5688C3.93931 15.5764 3.93893 15.5803 3.93893 15.5803H3.06396C3.06396 15.6958 3.10624 16.7376 4.57126 17.7312Z" fill="white"/>
<path d="M8.88728 4.2121C9.06799 3.93391 9.27249 3.67251 9.49839 3.43092L8.87929 2.80176C8.82051 2.86163 7.43872 4.28505 7.43872 5.78742H8.31368C8.31368 5.33348 8.51203 4.78873 8.88728 4.2121Z" fill="white"/>
</svg>
