<svg width="25" height="25" viewBox="0 0 25 25" fill="none" xmlns="http://www.w3.org/2000/svg">
<path d="M24.7536 0.064175C24.6013 -0.0227391 24.414 -0.0212743 24.2631 0.0679836L15.3151 5.3592C15.083 5.49645 15.0061 5.79587 15.1434 6.028C15.2806 6.26008 15.58 6.33698 15.8122 6.19977L22.2322 2.40343L10.2739 14.8113L4.32622 12.9917L12.0882 8.40182C12.3203 8.26452 12.3972 7.96511 12.26 7.73298C12.1228 7.5009 11.8233 7.42389 11.5912 7.5612L2.87637 12.7145C2.70986 12.813 2.61714 13.0004 2.64004 13.1926C2.66294 13.3847 2.79707 13.5451 2.98203 13.6017L10.085 15.7748L13.2187 21.4785C13.2219 21.4844 13.2253 21.4894 13.2288 21.4939C13.2811 21.5811 13.3594 21.6523 13.4572 21.6934C13.5184 21.7192 13.5827 21.7317 13.6465 21.7317C13.7717 21.7317 13.8949 21.6836 13.9879 21.5926L17.5911 18.0711L24.3688 20.1447C24.4156 20.159 24.4637 20.166 24.5116 20.166C24.6149 20.166 24.717 20.1332 24.802 20.0703C24.9265 19.9782 24.9999 19.8325 24.9999 19.6778V0.488296C24.9999 0.312954 24.9059 0.15104 24.7536 0.064175ZM13.2453 16.0757C13.1887 16.1574 13.1584 16.2544 13.1584 16.3537V19.3406L11.0186 15.4458L20.4874 5.62111L13.2453 16.0757ZM14.135 20.0835V17.0138L16.5271 17.7456L14.135 20.0835ZM24.0233 19.0177L14.4287 16.0824L24.0233 2.23166V19.0177Z" fill="white"/>
<path d="M8.02838 16.9716C7.83766 16.7809 7.52858 16.7809 7.33781 16.9716L2.7796 21.5298C2.58893 21.7205 2.58893 22.0297 2.7796 22.2204C2.87501 22.3157 2.99996 22.3634 3.12491 22.3634C3.24987 22.3634 3.37482 22.3157 3.47018 22.2204L8.02838 17.6621C8.21906 17.4715 8.21906 17.1623 8.02838 16.9716Z" fill="white"/>
<path d="M1.95658 23.0433C1.76586 22.8527 1.45678 22.8527 1.26605 23.0434L0.143005 24.1664C-0.0476685 24.3571 -0.0476685 24.6663 0.143005 24.857C0.238367 24.9523 0.363318 25 0.488269 25C0.613221 25 0.738172 24.9523 0.833533 24.8569L1.95658 23.7339C2.14725 23.5432 2.14725 23.234 1.95658 23.0433Z" fill="white"/>
<path d="M6.96528 24.1377C6.87451 24.0469 6.74854 23.9946 6.62012 23.9946C6.49116 23.9946 6.36572 24.0469 6.2749 24.1377C6.18408 24.2285 6.13184 24.354 6.13184 24.4829C6.13184 24.6113 6.18403 24.7373 6.2749 24.8281C6.36572 24.9189 6.4917 24.9712 6.62012 24.9712C6.74854 24.9712 6.87451 24.9189 6.96528 24.8281C7.0561 24.7373 7.1084 24.6113 7.1084 24.4829C7.1084 24.354 7.05615 24.2285 6.96528 24.1377Z" fill="white"/>
<path d="M10.5981 20.5048C10.4075 20.3141 10.0985 20.3141 9.90758 20.5048L7.49323 22.9191C7.30255 23.1098 7.30255 23.419 7.49323 23.6097C7.58859 23.705 7.71354 23.7527 7.83849 23.7527C7.96344 23.7527 8.08839 23.705 8.18375 23.6097L10.5981 21.1953C10.7888 21.0047 10.7888 20.6955 10.5981 20.5048Z" fill="white"/>
<path d="M18.9308 20.3192C18.7401 20.1286 18.431 20.1286 18.2403 20.3192L15.8194 22.7401C15.6287 22.9308 15.6287 23.24 15.8194 23.4307C15.9148 23.526 16.0397 23.5737 16.1647 23.5737C16.2896 23.5737 16.4146 23.526 16.5099 23.4307L18.9308 21.0098C19.1215 20.8191 19.1215 20.51 18.9308 20.3192Z" fill="white"/>
<path d="M13.8428 6.65576C13.752 6.56494 13.626 6.5127 13.4976 6.5127C13.3691 6.5127 13.2432 6.56494 13.1523 6.65576C13.0616 6.74658 13.0093 6.87256 13.0093 7.00146C13.0093 7.12988 13.0615 7.25537 13.1523 7.34619C13.2432 7.4375 13.3691 7.48926 13.4976 7.48926C13.626 7.48926 13.752 7.4375 13.8428 7.34619C13.9335 7.25537 13.9858 7.12988 13.9858 7.00146C13.9858 6.87256 13.9336 6.74658 13.8428 6.65576Z" fill="white"/>
</svg>
