<svg width="23" height="18" viewBox="0 0 23 18" fill="none" xmlns="http://www.w3.org/2000/svg">
<path d="M1.64282 8.18115H11.4999V9.81736H1.64282V8.18115Z" fill="white"/>
<path d="M0 4.09033H8.21424V5.72654H0V4.09033Z" fill="white"/>
<path d="M22.9334 8.6768L20.4691 2.95008C20.4059 2.80288 20.3006 2.67743 20.1664 2.5893C20.0322 2.50116 19.875 2.45422 19.7142 2.45431H17.25V0.818103C17.25 0.601128 17.1634 0.393041 17.0094 0.239617C16.8553 0.0861929 16.6464 0 16.4285 0H3.28576V1.63621H15.6071V11.9083C15.2328 12.1248 14.9053 12.4129 14.6433 12.7561C14.3814 13.0992 14.1902 13.4906 14.0809 13.9077H8.91909C8.71916 13.1366 8.24369 12.4645 7.5818 12.0174C6.91991 11.5704 6.11705 11.3792 5.32371 11.4795C4.53037 11.5799 3.80101 11.965 3.27235 12.5626C2.74369 13.1602 2.45203 13.9294 2.45203 14.7258C2.45203 15.5223 2.74369 16.2915 3.27235 16.8891C3.80101 17.4867 4.53037 17.8718 5.32371 17.9722C6.11705 18.0725 6.91991 17.8813 7.5818 17.4343C8.24369 16.9872 8.71916 16.3151 8.91909 15.544H14.0809C14.2596 16.2461 14.6683 16.8688 15.2422 17.3136C15.8162 17.7585 16.5227 18 17.25 18C17.9772 18 18.6837 17.7585 19.2577 17.3136C19.8317 16.8688 20.2403 16.2461 20.419 15.544H22.1785C22.3964 15.544 22.6053 15.4578 22.7594 15.3043C22.9134 15.1509 22.9999 14.9428 22.9999 14.7258V8.99913C23 8.8883 22.9773 8.77862 22.9334 8.6768ZM5.75003 16.3621C5.42511 16.3621 5.10748 16.2661 4.83731 16.0863C4.56715 15.9065 4.35658 15.651 4.23224 15.352C4.10789 15.053 4.07536 14.724 4.13875 14.4066C4.20214 14.0892 4.35861 13.7977 4.58836 13.5689C4.81812 13.34 5.11085 13.1842 5.42953 13.1211C5.74821 13.0579 6.07853 13.0904 6.37872 13.2142C6.67891 13.338 6.93549 13.5477 7.11601 13.8168C7.29653 14.0859 7.39288 14.4022 7.39288 14.7258C7.39244 15.1597 7.21922 15.5756 6.91122 15.8823C6.60322 16.1891 6.18561 16.3616 5.75003 16.3621ZM17.25 4.09051H19.1721L20.9332 8.18103H17.25V4.09051ZM17.25 16.3621C16.925 16.3621 16.6074 16.2661 16.3373 16.0863C16.0671 15.9065 15.8565 15.651 15.7322 15.352C15.6078 15.053 15.5753 14.724 15.6387 14.4066C15.7021 14.0892 15.8585 13.7977 16.0883 13.5689C16.3181 13.34 16.6108 13.1842 16.9295 13.1211C17.2481 13.0579 17.5785 13.0904 17.8787 13.2142C18.1789 13.338 18.4354 13.5477 18.6159 13.8168C18.7965 14.0859 18.8928 14.4022 18.8928 14.7258C18.8924 15.1597 18.7192 15.5756 18.4112 15.8823C18.1032 16.1891 17.6855 16.3616 17.25 16.3621ZM21.3571 13.9077H20.419C20.2381 13.207 19.8288 12.5858 19.2553 12.1417C18.6818 11.6975 17.9765 11.4555 17.25 11.4534V9.81723H21.3571V13.9077Z" fill="white"/>
</svg>
