<svg width="28" height="23" fill="none" xmlns="http://www.w3.org/2000/svg"><path d="M4.822 22.27c1.145.42 2.355.631 3.574.626a11.79 11.79 0 003.905-.68c2.524-.889 4.619-2.54 5.9-4.653 1.298-2.14 1.608-4.497.873-6.634a1.041 1.041 0 00-.049-.12 1.517 1.517 0 001.287.228l6.944-3.408a1.314 1.314 0 00.673-.767 1.342 1.342 0 00-.067-1.024l-.103-.207a1.316 1.316 0 00-.734-.658 1.3 1.3 0 00-.98.041l-6.539 3.02a1.543 1.543 0 00-.817.562 1.573 1.573 0 00-.226 1.463l-.129.087c-1.716-.869-5.88-.168-9.77 1.2-.228.08-.456.164-.683.25-.43-1.612.683-2.785.743-2.847l-.62-.625a4.288 4.288 0 00-.928 1.62 3.727 3.727 0 00-.018 2.172c-.7.282-1.372.582-2.009.892-.353-1.326-.384-2.693-.336-3.682a1.515 1.515 0 00-.395-1.092 1.482 1.482 0 00-1.048-.478 1.466 1.466 0 00-1.07.424 1.5 1.5 0 00-.449 1.071v3.13a.241.241 0 01-.07.17.235.235 0 01-.166.07 1.099 1.099 0 00-.789.331 1.125 1.125 0 00-.323.8 7.24 7.24 0 00.375 2.108c-.669.725-.908 1.383-.711 1.957.735 2.137 2.424 3.79 4.755 4.654zm7.192-.89c-2.333.82-4.78.842-6.892.06-1.56-.578-2.794-1.544-3.587-2.785.458.09.923.133 1.39.126.267 0 .553-.01.858-.031 1.508-.105 3.323-.47 5.229-1.041.038.006 1.081-.34 1.565-.51a33.629 33.629 0 003.246-1.33l.022-.011c1.144-.545 2.169-1.125 3.01-1.709.754-.522 1.322-1.017 1.704-1.483.329 3.534-2.34 7.233-6.545 8.713zm4.555-8.908c-.093.793-.246.957-.253.963l.009.009c-.362.25-.76.498-1.187.744a5.77 5.77 0 00.558-1.823.449.449 0 01.438-.387.434.434 0 01.417.31c.019.06.025.122.018.184zm9.837-6.652a.432.432 0 01.57.206l.103.208a.447.447 0 01-.204.597l-5.438 2.68a1.56 1.56 0 00-.539-1.146l5.508-2.545zm-6.5 3.06a.65.65 0 01.622.449.671.671 0 01-.22.74l-.24.118a.614.614 0 01-.24.015l.103-.069a.44.44 0 00.19-.455.445.445 0 00-.345-.35.433.433 0 00-.33.069l-.195.13a.668.668 0 01.198-.458.653.653 0 01.458-.19zM7.978 13.59l.673-.568a4.467 4.467 0 01-.427-.611c.209-.078.419-.154.629-.229 2.392-.841 4.725-1.376 6.567-1.503.857-.06 1.58-.025 2.089.1.414.102.677.258.74.44.062.182-.048.47-.31.81a4.59 4.59 0 01-.5.536 1.34 1.34 0 00-.278-.97 1.303 1.303 0 00-1.833-.224 1.334 1.334 0 00-.498.875c-.223 1.655-1.19 2.62-1.46 2.86a34.366 34.366 0 01-4.41 1.695c-1.728-.337-2.95-1.394-3.635-3.145a30.45 30.45 0 012.072-.924c.166.304.36.591.581.857zm-6.63-.214a.234.234 0 01.168-.07c.294 0 .577-.12.785-.33.209-.21.326-.497.326-.795v-3.13c0-.163.064-.319.178-.434a.604.604 0 011.035.466c-.062 1.285.003 3.177.668 4.887.383.985.925 1.795 1.61 2.408.39.349.83.636 1.304.854a22.198 22.198 0 01-3.045.574l-.365-.068c-.977-.165-1.72-.79-2.206-1.857a6.228 6.228 0 01-.527-2.335.24.24 0 01.069-.17zm-.454 3.95c-.06-.176.04-.444.273-.76a4.24 4.24 0 001.039 1.294 4.2 4.2 0 01-.572-.094c-.414-.101-.677-.258-.74-.44zm3.045-14.21c-.26 0-.513.078-.73.225a1.33 1.33 0 00-.483.6 1.357 1.357 0 00.285 1.454 1.291 1.291 0 001.43.29 1.32 1.32 0 00.59-.492 1.352 1.352 0 00-.164-1.686 1.303 1.303 0 00-.928-.391zm0 1.78a.432.432 0 01-.404-.274.452.452 0 01.095-.486.435.435 0 01.746.315.45.45 0 01-.128.315.434.434 0 01-.31.13zm4.375-3.561A1.342 1.342 0 007.503.102a1.291 1.291 0 00-1.43.29 1.357 1.357 0 00-.284 1.455c.099.244.267.452.483.599a1.296 1.296 0 001.657-.167c.246-.25.384-.59.385-.944zm-1.75 0a.45.45 0 01.27-.41.43.43 0 01.477.096.448.448 0 01-.31.76.434.434 0 01-.309-.13.45.45 0 01-.128-.316zm-.875 4.897h.875v.89h-.875v-.89z" fill="#fff"/><path d="M5.251 10.239h.875v.89h-.875v-.89zm2.625 4.006h.875v.89h-.875v-.89zm-7-8.458h.875v.89H.876v-.89zm3.695 11.944l.486-.74c-1.07-.726-1.117-1.394-1.118-1.422v.011h-.875c0 .116.042 1.158 1.507 2.151zM8.887 4.212c.181-.278.385-.54.611-.781L8.88 2.8c-.058.06-1.44 1.484-1.44 2.986h.875c0-.454.198-.998.573-1.575z" fill="#fff"/></svg>