<svg width="25" height="25" fill="none" xmlns="http://www.w3.org/2000/svg"><path d="M24.754.064a.488.488 0 00-.49.004l-8.949 5.291a.488.488 0 10.497.84l6.42-3.796-11.958 12.408-5.948-1.82 7.762-4.59a.488.488 0 00-.497-.84l-8.715 5.153a.488.488 0 00.106.888l7.103 2.173 3.134 5.704.01.015a.486.486 0 00.759.099l3.603-3.522 6.778 2.074a.488.488 0 00.63-.467V.488a.488.488 0 00-.245-.424zM13.245 16.076a.488.488 0 00-.087.278v2.987l-2.14-3.895 9.47-9.825-7.243 10.455zm.89 4.008v-3.07l2.392.732-2.392 2.338zm9.888-1.066l-9.594-2.936 9.594-13.85v16.786z" fill="#fff"/><path d="M8.028 16.972a.488.488 0 00-.69 0L2.78 21.53a.488.488 0 00.69.69l4.558-4.558a.487.487 0 000-.69zm-6.071 6.071a.488.488 0 00-.691 0L.143 24.166a.488.488 0 00.69.69l1.124-1.122c.19-.19.19-.5 0-.69zm5.008 1.095a.492.492 0 00-.69 0 .491.491 0 000 .69.492.492 0 00.69 0 .492.492 0 000-.69zm3.633-3.633a.488.488 0 00-.69 0l-2.415 2.414a.488.488 0 00.69.69l2.415-2.414c.19-.19.19-.5 0-.69zm8.332-.185a.488.488 0 00-.69 0l-2.42 2.42a.488.488 0 00.69.69l2.42-2.42a.485.485 0 000-.69zM13.843 6.656a.492.492 0 00-.69 0 .49.49 0 00.345.833.49.49 0 00.345-.833z" fill="#fff"/></svg>