<svg width="23" height="18" fill="none" xmlns="http://www.w3.org/2000/svg"><path d="M1.643 8.181H11.5v1.636H1.643V8.181zM0 4.09h8.214v1.637H0V4.09z" fill="#fff"/><path d="M22.933 8.677L20.47 2.95a.818.818 0 00-.755-.496H17.25V.818A.817.817 0 0016.428 0H3.287v1.636h12.321v10.272a3.276 3.276 0 00-1.526 2H8.919a3.273 3.273 0 00-1.337-1.89 3.297 3.297 0 00-4.31.545 3.265 3.265 0 000 4.326 3.29 3.29 0 004.31.545 3.273 3.273 0 001.337-1.89h5.162a3.255 3.255 0 001.161 1.77 3.278 3.278 0 004.016 0 3.255 3.255 0 001.161-1.77h1.76a.823.823 0 00.82-.818V8.999a.797.797 0 00-.066-.322zM5.75 16.362a1.648 1.648 0 01-1.518-1.01 1.63 1.63 0 01.356-1.783 1.644 1.644 0 011.79-.355 1.641 1.641 0 011.015 1.512 1.644 1.644 0 01-1.643 1.636zm11.5-12.271h1.922l1.761 4.09H17.25v-4.09zm0 12.271a1.647 1.647 0 01-1.518-1.01 1.63 1.63 0 01.356-1.783 1.644 1.644 0 012.805 1.157 1.646 1.646 0 01-1.643 1.636zm4.107-2.454h-.938a3.258 3.258 0 00-1.164-1.766 3.29 3.29 0 00-2.005-.689V9.817h4.107v4.09z" fill="#fff"/></svg>