<svg width="37" height="37" fill="none" xmlns="http://www.w3.org/2000/svg"><path d="M36.88 10.92a13.373 13.373 0 00-.86-4.545 9.454 9.454 0 00-5.41-5.4 13.593 13.593 0 00-4.49-.863C24.142.025 23.515 0 18.498 0c-5.018 0-5.66 0-7.623.113a13.593 13.593 0 00-4.49.861A9.467 9.467 0 00.977 6.375a13.424 13.424 0 00-.86 4.482C.025 12.833 0 13.458 0 18.467c0 5.01 0 5.65.115 7.61.03 1.534.32 3.048.861 4.486a9.456 9.456 0 005.412 5.4c1.433.56 2.951.872 4.49.922 1.978.088 2.605.115 7.622.115 5.017 0 5.66 0 7.623-.115a13.56 13.56 0 004.491-.86 9.483 9.483 0 005.41-5.4c.54-1.436.83-2.95.86-4.486.09-1.973.116-2.6.116-7.61-.004-5.01-.004-5.645-.12-7.608zM18.487 27.94c-5.248 0-9.499-4.244-9.499-9.483 0-5.239 4.251-9.483 9.499-9.483 2.519 0 4.935 1 6.716 2.778a9.475 9.475 0 010 13.41 9.507 9.507 0 01-6.716 2.778zm9.876-17.105a2.21 2.21 0 110-4.422 2.217 2.217 0 012.045 1.365 2.21 2.21 0 01-2.044 3.057z" fill="#FFD2B8"/><path d="M18.485 24.617a6.165 6.165 0 006.17-6.16 6.165 6.165 0 00-6.17-6.16 6.165 6.165 0 00-6.17 6.16 6.165 6.165 0 006.17 6.16z" fill="#FFD2B8"/></svg>