<svg width="30" height="30" fill="none" xmlns="http://www.w3.org/2000/svg"><path d="M16.5 9a4.5 4.5 0 014.5 4.5 1.5 1.5 0 103 0A7.5 7.5 0 0016.5 6a1.5 1.5 0 000 3z" fill="#F1B898"/><path d="M16.5 3A10.5 10.5 0 0127 13.5a1.5 1.5 0 103 0A13.5 13.5 0 0016.5 0a1.5 1.5 0 000 3zm13.125 17.865a1.5 1.5 0 00-1.08-.975l-9-2.055a1.5 1.5 0 00-1.38.39c-.21.195-.225.21-1.2 2.07A14.865 14.865 0 019.66 12.96c1.905-.96 1.92-.96 2.115-1.185a1.5 1.5 0 00.39-1.38L10.11 1.5A1.5 1.5 0 009.135.42a5.685 5.685 0 00-1.08-.27A5.91 5.91 0 006.9 0 6.9 6.9 0 000 6.9 23.13 23.13 0 0023.1 30a6.9 6.9 0 006.9-6.9c0-.382-.03-.763-.09-1.14a6.505 6.505 0 00-.285-1.095zM23.1 27A20.115 20.115 0 013 6.9 3.915 3.915 0 016.9 3h.495L9 9.96l-.81.42c-1.29.675-2.31 1.215-1.77 2.385A17.774 17.774 0 0017.19 23.58c1.26.51 1.755-.435 2.43-1.74l.435-.825L27 22.605v.495a3.915 3.915 0 01-3.9 3.9z" fill="#F1B898"/></svg>