<svg width="37" height="37" fill="none" xmlns="http://www.w3.org/2000/svg"><path d="M37 18.5a18.5 18.5 0 11-37 0 18.5 18.5 0 0137 0zm-17.836-4.842c-1.8.749-5.398 2.298-10.79 4.648-.875.347-1.335.689-1.376 1.022-.07.562.636.784 1.595 1.087l.405.127c.943.307 2.215.666 2.874.68.602.014 1.27-.231 2.008-.74 5.039-3.402 7.64-5.12 7.802-5.157.116-.028.277-.06.384.037.109.095.097.277.085.326-.069.298-2.837 2.87-4.268 4.202-.447.416-.764.71-.828.777-.143.145-.288.289-.435.43-.879.846-1.536 1.48.035 2.516.756.5 1.362.909 1.965 1.32.657.449 1.314.895 2.165 1.455.215.139.423.289.624.432.766.546 1.457 1.036 2.306.958.495-.046 1.006-.509 1.265-1.896.612-3.277 1.817-10.374 2.095-13.3a3.3 3.3 0 00-.03-.728.78.78 0 00-.264-.502 1.217 1.217 0 00-.717-.215c-.694.012-1.764.384-6.9 2.52z" fill="#F1B898"/></svg>