<svg width="31" height="30" viewBox="0 0 31 30" fill="none" xmlns="http://www.w3.org/2000/svg">
<path d="M3.5 27C3.5 28.665 4.835 30 6.5 30C7.29565 30 8.05871 29.6839 8.62132 29.1213C9.18393 28.5587 9.5 27.7957 9.5 27C9.5 25.335 8.165 24 6.5 24C5.70435 24 4.94129 24.3161 4.37868 24.8787C3.81607 25.4413 3.5 26.2044 3.5 27ZM21.5 24C23.165 24 24.5 25.335 24.5 27C24.5 27.7957 24.1839 28.5587 23.6213 29.1213C23.0587 29.6839 22.2957 30 21.5 30C19.835 30 18.5 28.665 18.5 27C18.5 25.335 19.835 24 21.5 24ZM21.2 18.945L21.245 19.125C21.245 19.335 21.08 19.5 20.87 19.5H3.5V22.5H21.5C22.2957 22.5 23.0587 22.1839 23.6213 21.6213C24.1839 21.0587 24.5 20.2957 24.5 19.5C24.5 18.975 24.365 18.48 24.14 18.06L22.1 14.385L27.5 3H30.5V0H25.595L24.185 3H2C1.175 3 0.500002 3.675 0.500002 4.5C0.500002 4.755 0.575005 5.01 0.680004 5.25L6.05 14.955C6.56 15.87 7.55 16.5 8.675 16.5H19.85L21.2 18.945ZM19.25 13.5H17V10.5H20.66L19.25 13.5ZM15.5 10.5V13.5H11V10.5H15.5ZM11 9V6H15.5V9H11ZM6.335 10.5H9.5V13.5H8L6.335 10.5ZM3.83 6H9.5V9H5.495L3.83 6ZM22.79 6L21.38 9H17V6H22.79Z" fill="white"/>
</svg>
