<svg width="31" height="30" fill="none" xmlns="http://www.w3.org/2000/svg"><path d="M3.5 27c0 1.665 1.335 3 3 3a3 3 0 003-3c0-1.665-1.335-3-3-3a3 3 0 00-3 3zm18-3c1.665 0 3 1.335 3 3a3 3 0 01-3 3 2.99 2.99 0 01-3-3c0-1.665 1.335-3 3-3zm-.3-5.055l.045.18c0 .21-.165.375-.375.375H3.5v3h18a3 3 0 003-3c0-.525-.135-1.02-.36-1.44l-2.04-3.675L27.5 3h3V0h-4.905l-1.41 3H2C1.175 3 .5 3.675.5 4.5c0 .255.075.51.18.75l5.37 9.705c.51.915 1.5 1.545 2.625 1.545H19.85l1.35 2.445zM19.25 13.5H17v-3h3.66l-1.41 3zm-3.75-3v3H11v-3h4.5zM11 9V6h4.5v3H11zm-4.665 1.5H9.5v3H8l-1.665-3zM3.83 6H9.5v3H5.495L3.83 6zm18.96 0l-1.41 3H17V6h5.79z" fill="#fff"/></svg>