<svg width="30" height="30" viewBox="0 0 30 30" fill="none" xmlns="http://www.w3.org/2000/svg">
<path d="M16.5 9C17.6935 9 18.8381 9.47411 19.682 10.318C20.5259 11.1619 21 12.3065 21 13.5C21 13.8978 21.158 14.2794 21.4393 14.5607C21.7206 14.842 22.1022 15 22.5 15C22.8978 15 23.2794 14.842 23.5607 14.5607C23.842 14.2794 24 13.8978 24 13.5C24 11.5109 23.2098 9.60322 21.8033 8.1967C20.3968 6.79018 18.4891 6 16.5 6C16.1022 6 15.7206 6.15804 15.4393 6.43934C15.158 6.72064 15 7.10218 15 7.5C15 7.89782 15.158 8.27936 15.4393 8.56066C15.7206 8.84196 16.1022 9 16.5 9Z" fill="#F1B898"/>
<path d="M16.5 3C19.2848 3 21.9555 4.10625 23.9246 6.07538C25.8937 8.04451 27 10.7152 27 13.5C27 13.8978 27.158 14.2794 27.4393 14.5607C27.7206 14.842 28.1022 15 28.5 15C28.8978 15 29.2794 14.842 29.5607 14.5607C29.842 14.2794 30 13.8978 30 13.5C30 9.91958 28.5777 6.4858 26.0459 3.95406C23.5142 1.42232 20.0804 0 16.5 0C16.1022 0 15.7206 0.158035 15.4393 0.43934C15.158 0.720644 15 1.10218 15 1.5C15 1.89782 15.158 2.27936 15.4393 2.56066C15.7206 2.84196 16.1022 3 16.5 3ZM29.625 20.865C29.5425 20.6242 29.4001 20.4084 29.2111 20.2378C29.0222 20.0672 28.793 19.9475 28.545 19.89L19.545 17.835C19.3007 17.7796 19.0464 17.7863 18.8054 17.8544C18.5643 17.9225 18.3442 18.0499 18.165 18.225C17.955 18.42 17.94 18.435 16.965 20.295C13.7298 18.8042 11.1375 16.2013 9.66 12.96C11.565 12 11.58 12 11.775 11.775C11.9501 11.5958 12.0775 11.3757 12.1456 11.1346C12.2137 10.8936 12.2204 10.6393 12.165 10.395L10.11 1.5C10.0525 1.25204 9.93279 1.02281 9.76221 0.833867C9.59165 0.644928 9.3758 0.502503 9.135 0.42C8.7847 0.294884 8.42297 0.204451 8.055 0.15C7.67588 0.0620928 7.289 0.011849 6.9 0C5.07001 0 3.31496 0.726962 2.02096 2.02096C0.726962 3.31496 0 5.07001 0 6.9C0.00793788 13.0241 2.44423 18.895 6.7746 23.2254C11.105 27.5558 16.9759 29.9921 23.1 30C24.0061 30 24.9034 29.8215 25.7405 29.4748C26.5777 29.128 27.3383 28.6198 27.979 27.979C28.6198 27.3383 29.128 26.5777 29.4748 25.7405C29.8215 24.9034 30 24.0061 30 23.1C30.0005 22.7182 29.9704 22.337 29.91 21.96C29.847 21.5874 29.7516 21.221 29.625 20.865ZM23.1 27C17.7704 26.996 12.6602 24.8771 8.89154 21.1085C5.12292 17.3398 3.00397 12.2296 3 6.9C3.00395 5.86687 3.41611 4.87719 4.14665 4.14665C4.87718 3.41611 5.86687 3.00395 6.9 3H7.395L9 9.96L8.19 10.38C6.9 11.055 5.88 11.595 6.42 12.765C7.29933 15.2544 8.72216 17.5166 10.5851 19.3873C12.448 21.258 14.7043 22.6903 17.19 23.58C18.45 24.09 18.945 23.145 19.62 21.84L20.055 21.015L27 22.605V23.1C26.996 24.1331 26.5839 25.1228 25.8533 25.8534C25.1228 26.5839 24.1331 26.996 23.1 27Z" fill="#F1B898"/>
</svg>
